<svg width="24" height="24" viewBox="0 0 24 24" fill="none" xmlns="http://www.w3.org/2000/svg">
<mask id="mask0" mask-type="alpha" maskUnits="userSpaceOnUse" x="2" y="2" width="20" height="20">
<g clip-path="url(#clip0)">
<path d="M4.5 9.5C4.00555 9.5 3.5222 9.64662 3.11108 9.92133C2.69995 10.196 2.37952 10.5865 2.1903 11.0433C2.00108 11.5001 1.95157 12.0028 2.04804 12.4877C2.1445 12.9727 2.3826 13.4181 2.73223 13.7678C3.08187 14.1174 3.52732 14.3555 4.01228 14.452C4.49723 14.5484 4.99989 14.4989 5.45671 14.3097C5.91353 14.1205 6.30397 13.8 6.57867 13.3889C6.85338 12.9778 7 12.4945 7 12C7 11.337 6.73661 10.7011 6.26777 10.2322C5.79893 9.76339 5.16304 9.5 4.5 9.5ZM12 9.5C11.5055 9.5 11.0222 9.64662 10.6111 9.92133C10.2 10.196 9.87952 10.5865 9.6903 11.0433C9.50108 11.5001 9.45157 12.0028 9.54804 12.4877C9.6445 12.9727 9.8826 13.4181 10.2322 13.7678C10.5819 14.1174 11.0273 14.3555 11.5123 14.452C11.9972 14.5484 12.4999 14.4989 12.9567 14.3097C13.4135 14.1205 13.804 13.8 14.0787 13.3889C14.3534 12.9778 14.5 12.4945 14.5 12C14.5 11.337 14.2366 10.7011 13.7678 10.2322C13.2989 9.76339 12.663 9.5 12 9.5ZM19.5 9.5C19.0055 9.5 18.5222 9.64662 18.1111 9.92133C17.7 10.196 17.3795 10.5865 17.1903 11.0433C17.0011 11.5001 16.9516 12.0028 17.048 12.4877C17.1445 12.9727 17.3826 13.4181 17.7322 13.7678C18.0819 14.1174 18.5273 14.3555 19.0123 14.452C19.4972 14.5484 19.9999 14.4989 20.4567 14.3097C20.9135 14.1205 21.304 13.8 21.5787 13.3889C21.8534 12.9778 22 12.4945 22 12C22 11.337 21.7366 10.7011 21.2678 10.2322C20.7989 9.76339 20.163 9.5 19.5 9.5Z" fill="black"/>
</g>
</mask>
<g mask="url(#mask0)">
<rect width="24" height="24" fill="#7D7D7D"/>
</g>
<defs>
<clipPath id="clip0">
<rect width="20" height="20" fill="white" transform="translate(2 2)"/>
</clipPath>
</defs>
</svg>
